{
  "asset": {
    "generator": "Microsoft GLTF Exporter 2.8.3.2",
    "version": "2.0"
  },
  "accessors": [
    {
      "bufferView": 0,
      "componentType": 5123,
      "count": 18066,
      "type": "SCALAR"
    },
    {
      "bufferView": 1,
      "componentType": 5126,
      "count": 3531,
      "type": "VEC3",
      "max": [
        2.4233107566833496,
        7.708443641662598,
        1.471297025680542
      ],
      "min": [
        -2.4233105182647705,
        0,
        -1.2626256942749023
      ]
    },
    {
      "bufferView": 2,
      "componentType": 5126,
      "count": 3531,
      "type": "VEC3"
    },
    {
      "bufferView": 3,
      "componentType": 5126,
      "count": 3531,
      "type": "VEC4"
    },
    {
      "bufferView": 4,
      "componentType": 5126,
      "count": 3531,
      "type": "VEC2"
    }
  ],
  "bufferViews": [
    {
      "buffer": 0,
      "byteOffset": 0,
      "byteLength": 36132,
      "target": 34963
    },
    {
      "buffer": 0,
      "byteOffset": 36132,
      "byteLength": 42372,
      "target": 34962
    },
    {
      "buffer": 0,
      "byteOffset": 78504,
      "byteLength": 42372,
      "target": 34962
    },
    {
      "buffer": 0,
      "byteOffset": 120876,
      "byteLength": 56496,
      "target": 34962
    },
    {
      "buffer": 0,
      "byteOffset": 177372,
      "byteLength": 28248,
      "target": 34962
    }
  ],
  "buffers": [
    {
      "uri": "SnowmanOrnament_data.bin",
      "byteLength": 205620
    }
  ],
  "images": [
    {
      "uri": "SnowmanOrnament_img0.png"
    },
    {
      "uri": "SnowmanOrnament_img1.png"
    },
    {
      "uri": "SnowmanOrnament_img2.png"
    },
    {
      "uri": "SnowmanOrnament_img3.png"
    }
  ],
  "materials": [
    {
      "pbrMetallicRoughness": {},
      "normalTexture": {
        "index": 2
      },
      "occlusionTexture": {
        "index": 3
      },
      "doubleSided": true,
      "extensions": {
        "KHR_materials_pbrSpecularGlossiness": {
          "diffuseTexture": {
            "index": 0
          },
          "specularGlossinessTexture": {
            "index": 1
          }
        }
      }
    }
  ],
  "meshes": [
    {
      "primitives": [
        {
          "attributes": {
            "TANGENT": 3,
            "NORMAL": 2,
            "POSITION": 1,
            "TEXCOORD_0": 4
          },
          "indices": 0,
          "material": 0
        }
      ]
    }
  ],
  "nodes": [
    {
      "children": [
        1
      ],
      "scale": [
        0.009999999776482582,
        0.009999999776482582,
        0.009999999776482582
      ],
      "name": "RootNode.0"
    },
    {
      "mesh": 0,
      "name": "snowman_ornament.1"
    }
  ],
  "samplers": [
    {
      "magFilter": 9729,
      "minFilter": 9985
    },
    {
      "magFilter": 9729,
      "minFilter": 9985
    },
    {
      "magFilter": 9729,
      "minFilter": 9985
    },
    {
      "magFilter": 9729,
      "minFilter": 9985
    }
  ],
  "scenes": [
    {
      "nodes": [
        0
      ]
    }
  ],
  "textures": [
    {
      "sampler": 0,
      "source": 0
    },
    {
      "sampler": 1,
      "source": 1
    },
    {
      "sampler": 2,
      "source": 2
    },
    {
      "sampler": 3,
      "source": 3
    }
  ],
  "scene": 0,
  "extensionsUsed": [
    "KHR_materials_pbrSpecularGlossiness"
  ],
  "extensionsRequired": [
    "KHR_materials_pbrSpecularGlossiness"
  ]
}