{
  "asset": {
    "generator": "Microsoft GLTF Exporter 2.8.3.2",
    "version": "2.0"
  },
  "accessors": [
    {
      "bufferView": 0,
      "componentType": 5123,
      "count": 14730,
      "type": "SCALAR"
    },
    {
      "bufferView": 1,
      "componentType": 5126,
      "count": 3255,
      "type": "VEC3",
      "max": [
        1.3774175643920898,
        4.5570855140686035,
        1.3734595775604248
      ],
      "min": [
        -1.3774175643920898,
        0,
        -1.3734595775604248
      ]
    },
    {
      "bufferView": 2,
      "componentType": 5126,
      "count": 3255,
      "type": "VEC3"
    },
    {
      "bufferView": 3,
      "componentType": 5126,
      "count": 3255,
      "type": "VEC4"
    },
    {
      "bufferView": 4,
      "componentType": 5126,
      "count": 3255,
      "type": "VEC2"
    }
  ],
  "bufferViews": [
    {
      "buffer": 0,
      "byteOffset": 0,
      "byteLength": 29460,
      "target": 34963
    },
    {
      "buffer": 0,
      "byteOffset": 29460,
      "byteLength": 39060,
      "target": 34962
    },
    {
      "buffer": 0,
      "byteOffset": 68520,
      "byteLength": 39060,
      "target": 34962
    },
    {
      "buffer": 0,
      "byteOffset": 107580,
      "byteLength": 52080,
      "target": 34962
    },
    {
      "buffer": 0,
      "byteOffset": 159660,
      "byteLength": 26040,
      "target": 34962
    }
  ],
  "buffers": [
    {
      "uri": "OrnateOrnament_data.bin",
      "byteLength": 185700
    }
  ],
  "images": [
    {
      "uri": "OrnateOrnament_img0.png"
    },
    {
      "uri": "OrnateOrnament_img1.png"
    },
    {
      "uri": "OrnateOrnament_img2.png"
    },
    {
      "uri": "OrnateOrnament_img3.png"
    }
  ],
  "materials": [
    {
      "pbrMetallicRoughness": {},
      "normalTexture": {
        "index": 2
      },
      "emissiveTexture": {
        "index": 3
      },
      "emissiveFactor": [
        1,
        1,
        1
      ],
      "doubleSided": true,
      "extensions": {
        "KHR_materials_pbrSpecularGlossiness": {
          "diffuseTexture": {
            "index": 0
          },
          "specularGlossinessTexture": {
            "index": 1
          }
        }
      }
    }
  ],
  "meshes": [
    {
      "primitives": [
        {
          "attributes": {
            "TANGENT": 3,
            "NORMAL": 2,
            "POSITION": 1,
            "TEXCOORD_0": 4
          },
          "indices": 0,
          "material": 0
        }
      ]
    }
  ],
  "nodes": [
    {
      "children": [
        1
      ],
      "scale": [
        0.009999999776482582,
        0.009999999776482582,
        0.009999999776482582
      ],
      "name": "RootNode.0"
    },
    {
      "mesh": 0,
      "name": "ornate_ornament.1"
    }
  ],
  "samplers": [
    {
      "magFilter": 9729,
      "minFilter": 9985
    },
    {
      "magFilter": 9729,
      "minFilter": 9985
    },
    {
      "magFilter": 9729,
      "minFilter": 9985
    },
    {
      "magFilter": 9729,
      "minFilter": 9985
    }
  ],
  "scenes": [
    {
      "nodes": [
        0
      ]
    }
  ],
  "textures": [
    {
      "sampler": 0,
      "source": 0
    },
    {
      "sampler": 1,
      "source": 1
    },
    {
      "sampler": 2,
      "source": 2
    },
    {
      "sampler": 3,
      "source": 3
    }
  ],
  "scene": 0,
  "extensionsUsed": [
    "KHR_materials_pbrSpecularGlossiness"
  ],
  "extensionsRequired": [
    "KHR_materials_pbrSpecularGlossiness"
  ]
}