{
  "asset": {
    "generator": "Microsoft GLTF Exporter 2.8.3.2",
    "version": "2.0"
  },
  "accessors": [
    {
      "bufferView": 0,
      "componentType": 5123,
      "count": 33846,
      "type": "SCALAR"
    },
    {
      "bufferView": 1,
      "componentType": 5126,
      "count": 7680,
      "type": "VEC3",
      "max": [
        20.450040817260742,
        47.403770446777344,
        9.173091888427734
      ],
      "min": [
        -23.97284698486328,
        0.041322946548461914,
        -9.729781150817871
      ]
    },
    {
      "bufferView": 2,
      "componentType": 5126,
      "count": 7680,
      "type": "VEC3"
    },
    {
      "bufferView": 3,
      "componentType": 5126,
      "count": 7680,
      "type": "VEC4"
    },
    {
      "bufferView": 4,
      "componentType": 5126,
      "count": 7680,
      "type": "VEC2"
    }
  ],
  "bufferViews": [
    {
      "buffer": 0,
      "byteOffset": 0,
      "byteLength": 67692,
      "target": 34963
    },
    {
      "buffer": 0,
      "byteOffset": 67692,
      "byteLength": 92160,
      "target": 34962
    },
    {
      "buffer": 0,
      "byteOffset": 159852,
      "byteLength": 92160,
      "target": 34962
    },
    {
      "buffer": 0,
      "byteOffset": 252012,
      "byteLength": 122880,
      "target": 34962
    },
    {
      "buffer": 0,
      "byteOffset": 374892,
      "byteLength": 61440,
      "target": 34962
    }
  ],
  "buffers": [
    {
      "uri": "FestiveWreath_data.bin",
      "byteLength": 436332
    }
  ],
  "images": [
    {
      "uri": "FestiveWreath_img0.png"
    },
    {
      "uri": "FestiveWreath_img1.png"
    },
    {
      "uri": "FestiveWreath_img2.png"
    },
    {
      "uri": "FestiveWreath_img3.png"
    }
  ],
  "materials": [
    {
      "pbrMetallicRoughness": {},
      "normalTexture": {
        "index": 2
      },
      "emissiveTexture": {
        "index": 3
      },
      "emissiveFactor": [
        1,
        1,
        1
      ],
      "doubleSided": true,
      "extensions": {
        "KHR_materials_pbrSpecularGlossiness": {
          "diffuseTexture": {
            "index": 0
          },
          "specularGlossinessTexture": {
            "index": 1
          }
        }
      }
    }
  ],
  "meshes": [
    {
      "primitives": [
        {
          "attributes": {
            "TANGENT": 3,
            "NORMAL": 2,
            "POSITION": 1,
            "TEXCOORD_0": 4
          },
          "indices": 0,
          "material": 0
        }
      ]
    }
  ],
  "nodes": [
    {
      "children": [
        1
      ],
      "scale": [
        0.009999999776482582,
        0.009999999776482582,
        0.009999999776482582
      ],
      "name": "RootNode.0"
    },
    {
      "rotation": [
        -3.0616171314629196e-17,
        0,
        0,
        1
      ],
      "mesh": 0,
      "name": "holiday_wreath.1"
    }
  ],
  "samplers": [
    {
      "magFilter": 9729,
      "minFilter": 9985
    },
    {
      "magFilter": 9729,
      "minFilter": 9985
    },
    {
      "magFilter": 9729,
      "minFilter": 9985
    },
    {
      "magFilter": 9729,
      "minFilter": 9985
    }
  ],
  "scenes": [
    {
      "nodes": [
        0
      ]
    }
  ],
  "textures": [
    {
      "sampler": 0,
      "source": 0
    },
    {
      "sampler": 1,
      "source": 1
    },
    {
      "sampler": 2,
      "source": 2
    },
    {
      "sampler": 3,
      "source": 3
    }
  ],
  "scene": 0,
  "extensionsUsed": [
    "KHR_materials_pbrSpecularGlossiness"
  ],
  "extensionsRequired": [
    "KHR_materials_pbrSpecularGlossiness"
  ]
}