{
  "asset": {
    "generator": "Microsoft GLTF Exporter 2.8.3.2",
    "version": "2.0"
  },
  "accessors": [
    {
      "bufferView": 0,
      "componentType": 5123,
      "count": 24516,
      "type": "SCALAR"
    },
    {
      "bufferView": 1,
      "componentType": 5126,
      "count": 4941,
      "type": "VEC3",
      "max": [
        11.464455604553223,
        27.668405532836914,
        10.340743064880371
      ],
      "min": [
        -10.20052719116211,
        0.2365110069513321,
        -10.227567672729492
      ]
    },
    {
      "bufferView": 2,
      "componentType": 5126,
      "count": 4941,
      "type": "VEC3"
    },
    {
      "bufferView": 3,
      "componentType": 5126,
      "count": 4941,
      "type": "VEC4"
    },
    {
      "bufferView": 4,
      "componentType": 5126,
      "count": 4941,
      "type": "VEC2"
    }
  ],
  "bufferViews": [
    {
      "buffer": 0,
      "byteOffset": 0,
      "byteLength": 49032,
      "target": 34963
    },
    {
      "buffer": 0,
      "byteOffset": 49032,
      "byteLength": 59292,
      "target": 34962
    },
    {
      "buffer": 0,
      "byteOffset": 108324,
      "byteLength": 59292,
      "target": 34962
    },
    {
      "buffer": 0,
      "byteOffset": 167616,
      "byteLength": 79056,
      "target": 34962
    },
    {
      "buffer": 0,
      "byteOffset": 246672,
      "byteLength": 39528,
      "target": 34962
    }
  ],
  "buffers": [
    {
      "uri": "Hat_data.bin",
      "byteLength": 286200
    }
  ],
  "images": [
    {
      "uri": "Hat_img0.png"
    },
    {
      "uri": "Hat_img1.png"
    },
    {
      "uri": "Hat_img2.png"
    },
    {
      "uri": "Hat_img3.png"
    }
  ],
  "materials": [
    {
      "pbrMetallicRoughness": {},
      "normalTexture": {
        "index": 2
      },
      "occlusionTexture": {
        "index": 3
      },
      "doubleSided": true,
      "extensions": {
        "KHR_materials_pbrSpecularGlossiness": {
          "diffuseTexture": {
            "index": 0
          },
          "specularGlossinessTexture": {
            "index": 1
          }
        }
      }
    }
  ],
  "meshes": [
    {
      "primitives": [
        {
          "attributes": {
            "TANGENT": 3,
            "NORMAL": 2,
            "POSITION": 1,
            "TEXCOORD_0": 4
          },
          "indices": 0,
          "material": 0
        }
      ]
    }
  ],
  "nodes": [
    {
      "children": [
        1
      ],
      "scale": [
        0.009999999776482582,
        0.009999999776482582,
        0.009999999776482582
      ],
      "name": "RootNode.0"
    },
    {
      "mesh": 0,
      "name": "santa_hat.1"
    }
  ],
  "samplers": [
    {
      "magFilter": 9729,
      "minFilter": 9985
    },
    {
      "magFilter": 9729,
      "minFilter": 9985
    },
    {
      "magFilter": 9729,
      "minFilter": 9985
    },
    {
      "magFilter": 9729,
      "minFilter": 9985
    }
  ],
  "scenes": [
    {
      "nodes": [
        0
      ]
    }
  ],
  "textures": [
    {
      "sampler": 0,
      "source": 0
    },
    {
      "sampler": 1,
      "source": 1
    },
    {
      "sampler": 2,
      "source": 2
    },
    {
      "sampler": 3,
      "source": 3
    }
  ],
  "scene": 0,
  "extensionsUsed": [
    "KHR_materials_pbrSpecularGlossiness"
  ],
  "extensionsRequired": [
    "KHR_materials_pbrSpecularGlossiness"
  ]
}