{
  "accessors": [
    {
      "bufferView": 2,
      "componentType": 5126,
      "count": 300,
      "max": [
        42.805698394775391,
        -13.884799957275391,
        35.720699310302734
      ],
      "min": [
        37.296100616455078,
        -19.394500732421875,
        22.032600402832031
      ],
      "type": "VEC3"
    },
    {
      "bufferView": 2,
      "byteOffset": 3600,
      "componentType": 5126,
      "count": 300,
      "max": [
        1,
        1,
        1
      ],
      "min": [
        -1,
        -1,
        -1
      ],
      "type": "VEC3"
    },
    {
      "bufferView": 3,
      "componentType": 5126,
      "count": 300,
      "max": [
        1,
        1,
        1,
        1
      ],
      "min": [
        -1,
        -1,
        -1,
        -1
      ],
      "type": "VEC4"
    },
    {
      "bufferView": 1,
      "componentType": 5126,
      "count": 300,
      "max": [
        0.99199998378753662,
        0.98720002174377441
      ],
      "min": [
        0.0020000000949949026,
        0.0020000000949949026
      ],
      "type": "VEC2"
    },
    {
      "bufferView": 0,
      "componentType": 5125,
      "count": 936,
      "max": [
        299
      ],
      "min": [
        0
      ],
      "type": "SCALAR"
    },
    {
      "bufferView": 2,
      "byteOffset": 7200,
      "componentType": 5126,
      "count": 300,
      "max": [
        42.805698394775391,
        19.11090087890625,
        35.720699310302734
      ],
      "min": [
        37.296100616455078,
        13.601200103759766,
        22.032600402832031
      ],
      "type": "VEC3"
    },
    {
      "bufferView": 2,
      "byteOffset": 10800,
      "componentType": 5126,
      "count": 300,
      "max": [
        1,
        1,
        1
      ],
      "min": [
        -1,
        -1,
        -1
      ],
      "type": "VEC3"
    },
    {
      "bufferView": 3,
      "byteOffset": 4800,
      "componentType": 5126,
      "count": 300,
      "max": [
        1,
        1,
        1,
        1
      ],
      "min": [
        -1,
        -1,
        -1,
        -1
      ],
      "type": "VEC4"
    },
    {
      "bufferView": 1,
      "byteOffset": 2400,
      "componentType": 5126,
      "count": 300,
      "max": [
        0.99199998378753662,
        0.98720002174377441
      ],
      "min": [
        0.0020000000949949026,
        0.0020000000949949026
      ],
      "type": "VEC2"
    },
    {
      "bufferView": 0,
      "byteOffset": 3744,
      "componentType": 5125,
      "count": 936,
      "max": [
        299
      ],
      "min": [
        0
      ],
      "type": "SCALAR"
    },
    {
      "bufferView": 2,
      "byteOffset": 14400,
      "componentType": 5126,
      "count": 136,
      "max": [
        -35.056499481201172,
        -15.993900299072266,
        33.689998626708984
      ],
      "min": [
        -44.834999084472656,
        -16.851299285888672,
        30.499799728393555
      ],
      "type": "VEC3"
    },
    {
      "bufferView": 2,
      "byteOffset": 16032,
      "componentType": 5126,
      "count": 136,
      "max": [
        1,
        1,
        1
      ],
      "min": [
        -0.99757516384124756,
        -1,
        -1
      ],
      "type": "VEC3"
    },
    {
      "bufferView": 3,
      "byteOffset": 9600,
      "componentType": 5126,
      "count": 136,
      "max": [
        0.99897629022598267,
        0.99975168704986572,
        0.99974805116653442,
        1
      ],
      "min": [
        -0.99994111061096191,
        -0.99983888864517212,
        -0.99992036819458008,
        1
      ],
      "type": "VEC4"
    },
    {
      "bufferView": 1,
      "byteOffset": 4800,
      "componentType": 5126,
      "count": 136,
      "max": [
        0.92360001802444458,
        0.99800002574920654
      ],
      "min": [
        0.13099999725818634,
        0.0020000000949949026
      ],
      "type": "VEC2"
    },
    {
      "bufferView": 0,
      "byteOffset": 7488,
      "componentType": 5125,
      "count": 252,
      "max": [
        135
      ],
      "min": [
        0
      ],
      "type": "SCALAR"
    },
    {
      "bufferView": 2,
      "byteOffset": 17664,
      "componentType": 5126,
      "count": 136,
      "max": [
        -35.056499481201172,
        16.743099212646484,
        33.689998626708984
      ],
      "min": [
        -44.834999084472656,
        15.885800361633301,
        30.499799728393555
      ],
      "type": "VEC3"
    },
    {
      "bufferView": 2,
      "byteOffset": 19296,
      "componentType": 5126,
      "count": 136,
      "max": [
        1,
        1,
        1
      ],
      "min": [
        -0.99757516384124756,
        -1,
        -1
      ],
      "type": "VEC3"
    },
    {
      "bufferView": 3,
      "byteOffset": 11776,
      "componentType": 5126,
      "count": 136,
      "max": [
        0.99897629022598267,
        0.99975168704986572,
        0.99974805116653442,
        1
      ],
      "min": [
        -0.99994111061096191,
        -0.99983888864517212,
        -0.99992036819458008,
        1
      ],
      "type": "VEC4"
    },
    {
      "bufferView": 1,
      "byteOffset": 5888,
      "componentType": 5126,
      "count": 136,
      "max": [
        0.92360001802444458,
        0.99800002574920654
      ],
      "min": [
        0.13099999725818634,
        0.0020000000949949026
      ],
      "type": "VEC2"
    },
    {
      "bufferView": 0,
      "byteOffset": 8496,
      "componentType": 5125,
      "count": 252,
      "max": [
        135
      ],
      "min": [
        0
      ],
      "type": "SCALAR"
    },
    {
      "bufferView": 2,
      "byteOffset": 20928,
      "componentType": 5126,
      "count": 2116,
      "max": [
        46.787799835205078,
        22.237300872802734,
        45.887401580810547
      ],
      "min": [
        -39.912700653076172,
        -22.360500335693359,
        0.091899998486042023
      ],
      "type": "VEC3"
    },
    {
      "bufferView": 2,
      "byteOffset": 46320,
      "componentType": 5126,
      "count": 2116,
      "max": [
        1,
        1,
        1
      ],
      "min": [
        -1,
        -1,
        -1
      ],
      "type": "VEC3"
    },
    {
      "bufferView": 3,
      "byteOffset": 13952,
      "componentType": 5126,
      "count": 2116,
      "max": [
        1,
        1,
        1,
        1
      ],
      "min": [
        -1,
        -1,
        -1,
        -1
      ],
      "type": "VEC4"
    },
    {
      "bufferView": 1,
      "byteOffset": 6976,
      "componentType": 5126,
      "count": 2116,
      "max": [
        0.99900001287460327,
        0.99229997396469116
      ],
      "min": [
        0.0010000000474974513,
        0.0038999998942017555
      ],
      "type": "VEC2"
    },
    {
      "bufferView": 0,
      "byteOffset": 9504,
      "componentType": 5125,
      "count": 3780,
      "max": [
        2115
      ],
      "min": [
        0
      ],
      "type": "SCALAR"
    },
    {
      "bufferView": 2,
      "byteOffset": 71712,
      "componentType": 5126,
      "count": 300,
      "max": [
        -41.125099182128906,
        -13.682499885559082,
        32.647201538085938
      ],
      "min": [
        -46.634700775146484,
        -19.19219970703125,
        18.958999633789062
      ],
      "type": "VEC3"
    },
    {
      "bufferView": 2,
      "byteOffset": 75312,
      "componentType": 5126,
      "count": 300,
      "max": [
        1,
        1,
        1
      ],
      "min": [
        -1,
        -1,
        -1
      ],
      "type": "VEC3"
    },
    {
      "bufferView": 3,
      "byteOffset": 47808,
      "componentType": 5126,
      "count": 300,
      "max": [
        1,
        1,
        1,
        1
      ],
      "min": [
        -1,
        -1,
        -1,
        -1
      ],
      "type": "VEC4"
    },
    {
      "bufferView": 1,
      "byteOffset": 23904,
      "componentType": 5126,
      "count": 300,
      "max": [
        0.99199998378753662,
        0.98720002174377441
      ],
      "min": [
        0.0020000000949949026,
        0.0020000000949949026
      ],
      "type": "VEC2"
    },
    {
      "bufferView": 0,
      "byteOffset": 24624,
      "componentType": 5125,
      "count": 936,
      "max": [
        299
      ],
      "min": [
        0
      ],
      "type": "SCALAR"
    },
    {
      "bufferView": 2,
      "byteOffset": 78912,
      "componentType": 5126,
      "count": 300,
      "max": [
        -41.125099182128906,
        19.054500579833984,
        32.647201538085938
      ],
      "min": [
        -46.634700775146484,
        13.544899940490723,
        18.958999633789062
      ],
      "type": "VEC3"
    },
    {
      "bufferView": 2,
      "byteOffset": 82512,
      "componentType": 5126,
      "count": 300,
      "max": [
        1,
        1,
        1
      ],
      "min": [
        -1,
        -1,
        -1
      ],
      "type": "VEC3"
    },
    {
      "bufferView": 3,
      "byteOffset": 52608,
      "componentType": 5126,
      "count": 300,
      "max": [
        1,
        1,
        1,
        1
      ],
      "min": [
        -1,
        -1,
        -1,
        -1
      ],
      "type": "VEC4"
    },
    {
      "bufferView": 1,
      "byteOffset": 26304,
      "componentType": 5126,
      "count": 300,
      "max": [
        0.99199998378753662,
        0.98720002174377441
      ],
      "min": [
        0.0020000000949949026,
        0.0020000000949949026
      ],
      "type": "VEC2"
    },
    {
      "bufferView": 0,
      "byteOffset": 28368,
      "componentType": 5125,
      "count": 936,
      "max": [
        299
      ],
      "min": [
        0
      ],
      "type": "SCALAR"
    }
  ],
  "asset": {
    "extras": {
      "author": "itspiao (https://sketchfab.com/itspiao)",
      "license": "CC-BY-4.0 (http://creativecommons.org/licenses/by/4.0/)",
      "source": "https://sketchfab.com/3d-models/sled-study-0a1f4dac81604cfc9be40b1b237b4025",
      "title": "Sled_study"
    },
    "generator": "Sketchfab-6.63.1",
    "version": "2.0"
  },
  "bufferViews": [
    {
      "buffer": 0,
      "byteLength": 32112,
      "byteOffset": 0,
      "name": "floatBufferViews",
      "target": 34963
    },
    {
      "buffer": 0,
      "byteLength": 28704,
      "byteOffset": 32112,
      "byteStride": 8,
      "name": "floatBufferViews",
      "target": 34962
    },
    {
      "buffer": 0,
      "byteLength": 86112,
      "byteOffset": 60816,
      "byteStride": 12,
      "name": "floatBufferViews",
      "target": 34962
    },
    {
      "buffer": 0,
      "byteLength": 57408,
      "byteOffset": 146928,
      "byteStride": 16,
      "name": "floatBufferViews",
      "target": 34962
    }
  ],
  "buffers": [
    {
      "byteLength": 204336,
      "uri": "scene.bin"
    }
  ],
  "images": [
    {
      "uri": "textures/Material__10_baseColor.png"
    },
    {
      "uri": "textures/Material__12_baseColor.png"
    },
    {
      "uri": "textures/Material__5_baseColor.png"
    },
    {
      "uri": "textures/Material__5_metallicRoughness.png"
    }
  ],
  "materials": [
    {
      "doubleSided": true,
      "name": "Material__10",
      "pbrMetallicRoughness": {
        "baseColorFactor": [
          1,
          1,
          1,
          1
        ],
        "baseColorTexture": {
          "index": 0,
          "texCoord": 0
        },
        "metallicFactor": 0.5,
        "roughnessFactor": 1
      }
    },
    {
      "doubleSided": true,
      "name": "Material__11",
      "pbrMetallicRoughness": {
        "baseColorFactor": [
          1,
          1,
          1,
          1
        ],
        "baseColorTexture": {
          "index": 0,
          "texCoord": 0
        },
        "metallicFactor": 0.5,
        "roughnessFactor": 1
      }
    },
    {
      "doubleSided": true,
      "name": "Material__12",
      "pbrMetallicRoughness": {
        "baseColorFactor": [
          1,
          1,
          1,
          1
        ],
        "baseColorTexture": {
          "index": 1,
          "texCoord": 0
        },
        "metallicFactor": 0.5,
        "roughnessFactor": 1
      }
    },
    {
      "doubleSided": true,
      "name": "Material__13",
      "pbrMetallicRoughness": {
        "baseColorFactor": [
          1,
          1,
          1,
          1
        ],
        "baseColorTexture": {
          "index": 1,
          "texCoord": 0
        },
        "metallicFactor": 0.5,
        "roughnessFactor": 1
      }
    },
    {
      "doubleSided": true,
      "name": "Material__5",
      "pbrMetallicRoughness": {
        "baseColorFactor": [
          1,
          1,
          1,
          1
        ],
        "baseColorTexture": {
          "index": 2,
          "texCoord": 0
        },
        "metallicFactor": 0,
        "metallicRoughnessTexture": {
          "index": 3,
          "texCoord": 0
        },
        "roughnessFactor": 0
      }
    },
    {
      "doubleSided": true,
      "name": "Material__8",
      "pbrMetallicRoughness": {
        "baseColorFactor": [
          1,
          1,
          1,
          1
        ],
        "baseColorTexture": {
          "index": 0,
          "texCoord": 0
        },
        "metallicFactor": 0.5,
        "roughnessFactor": 1
      }
    },
    {
      "doubleSided": true,
      "name": "Material__9",
      "pbrMetallicRoughness": {
        "baseColorFactor": [
          1,
          1,
          1,
          1
        ],
        "baseColorTexture": {
          "index": 0,
          "texCoord": 0
        },
        "metallicFactor": 0.5,
        "roughnessFactor": 1
      }
    }
  ],
  "meshes": [
    {
      "primitives": [
        {
          "attributes": {
            "NORMAL": 1,
            "POSITION": 0,
            "TANGENT": 2,
            "TEXCOORD_0": 3
          },
          "indices": 4,
          "material": 0,
          "mode": 4
        }
      ]
    },
    {
      "primitives": [
        {
          "attributes": {
            "NORMAL": 6,
            "POSITION": 5,
            "TANGENT": 7,
            "TEXCOORD_0": 8
          },
          "indices": 9,
          "material": 1,
          "mode": 4
        }
      ]
    },
    {
      "primitives": [
        {
          "attributes": {
            "NORMAL": 11,
            "POSITION": 10,
            "TANGENT": 12,
            "TEXCOORD_0": 13
          },
          "indices": 14,
          "material": 2,
          "mode": 4
        }
      ]
    },
    {
      "primitives": [
        {
          "attributes": {
            "NORMAL": 16,
            "POSITION": 15,
            "TANGENT": 17,
            "TEXCOORD_0": 18
          },
          "indices": 19,
          "material": 3,
          "mode": 4
        }
      ]
    },
    {
      "primitives": [
        {
          "attributes": {
            "NORMAL": 21,
            "POSITION": 20,
            "TANGENT": 22,
            "TEXCOORD_0": 23
          },
          "indices": 24,
          "material": 4,
          "mode": 4
        }
      ]
    },
    {
      "primitives": [
        {
          "attributes": {
            "NORMAL": 26,
            "POSITION": 25,
            "TANGENT": 27,
            "TEXCOORD_0": 28
          },
          "indices": 29,
          "material": 5,
          "mode": 4
        }
      ]
    },
    {
      "primitives": [
        {
          "attributes": {
            "NORMAL": 31,
            "POSITION": 30,
            "TANGENT": 32,
            "TEXCOORD_0": 33
          },
          "indices": 34,
          "material": 6,
          "mode": 4
        }
      ]
    }
  ],
  "nodes": [
    {
      "children": [
        1
      ],
      "name": "RootNode (gltf orientation matrix)",
      "rotation": [
        -0.70710678118654746,
        -0,
        -0,
        0.70710678118654757
      ]
    },
    {
      "children": [
        2
      ],
      "name": "RootNode (model correction matrix)"
    },
    {
      "children": [
        3,
        4,
        5,
        6,
        7,
        8,
        9
      ],
      "name": "sled.obj.cleaner.materialmerger.gles"
    },
    {
      "mesh": 0,
      "name": ""
    },
    {
      "mesh": 1,
      "name": ""
    },
    {
      "mesh": 2,
      "name": ""
    },
    {
      "mesh": 3,
      "name": ""
    },
    {
      "mesh": 4,
      "name": ""
    },
    {
      "mesh": 5,
      "name": ""
    },
    {
      "mesh": 6,
      "name": ""
    }
  ],
  "samplers": [
    {
      "magFilter": 9729,
      "minFilter": 9987,
      "wrapS": 10497,
      "wrapT": 10497
    }
  ],
  "scene": 0,
  "scenes": [
    {
      "name": "OSG_Scene",
      "nodes": [
        0
      ]
    }
  ],
  "textures": [
    {
      "sampler": 0,
      "source": 0
    },
    {
      "sampler": 0,
      "source": 1
    },
    {
      "sampler": 0,
      "source": 2
    },
    {
      "sampler": 0,
      "source": 3
    }
  ]
}

