{
  "asset": {
    "generator": "Microsoft GLTF Exporter 2.8.3.2",
    "version": "2.0"
  },
  "accessors": [
    {
      "bufferView": 0,
      "componentType": 5123,
      "count": 49074,
      "type": "SCALAR"
    },
    {
      "bufferView": 1,
      "componentType": 5126,
      "count": 9287,
      "type": "VEC3",
      "max": [
        1.39959716796875,
        7.257147312164307,
        2.3770813941955566
      ],
      "min": [
        -1.39959716796875,
        -0.0005869865417480469,
        -1.1683844327926636
      ]
    },
    {
      "bufferView": 2,
      "componentType": 5126,
      "count": 9287,
      "type": "VEC3"
    },
    {
      "bufferView": 3,
      "componentType": 5126,
      "count": 9287,
      "type": "VEC4"
    },
    {
      "bufferView": 4,
      "componentType": 5126,
      "count": 9287,
      "type": "VEC2"
    }
  ],
  "bufferViews": [
    {
      "buffer": 0,
      "byteOffset": 0,
      "byteLength": 98148,
      "target": 34963
    },
    {
      "buffer": 0,
      "byteOffset": 98148,
      "byteLength": 111444,
      "target": 34962
    },
    {
      "buffer": 0,
      "byteOffset": 209592,
      "byteLength": 111444,
      "target": 34962
    },
    {
      "buffer": 0,
      "byteOffset": 321036,
      "byteLength": 148592,
      "target": 34962
    },
    {
      "buffer": 0,
      "byteOffset": 469628,
      "byteLength": 74296,
      "target": 34962
    }
  ],
  "buffers": [
    {
      "uri": "CarollerinGreenJacket_data.bin",
      "byteLength": 543924
    }
  ],
  "images": [
    {
      "uri": "CarollerinGreenJacket_img0.png"
    },
    {
      "uri": "CarollerinGreenJacket_img1.png"
    },
    {
      "uri": "CarollerinGreenJacket_img2.png"
    },
    {
      "uri": "CarollerinGreenJacket_img3.png"
    },
    {
      "uri": "CarollerinGreenJacket_img4.png"
    }
  ],
  "materials": [
    {
      "pbrMetallicRoughness": {},
      "normalTexture": {
        "index": 2
      },
      "occlusionTexture": {
        "index": 4
      },
      "emissiveTexture": {
        "index": 3
      },
      "emissiveFactor": [
        1,
        1,
        1
      ],
      "doubleSided": true,
      "extensions": {
        "KHR_materials_pbrSpecularGlossiness": {
          "diffuseTexture": {
            "index": 0
          },
          "specularGlossinessTexture": {
            "index": 1
          }
        }
      }
    }
  ],
  "meshes": [
    {
      "primitives": [
        {
          "attributes": {
            "TANGENT": 3,
            "NORMAL": 2,
            "POSITION": 1,
            "TEXCOORD_0": 4
          },
          "indices": 0,
          "material": 0
        }
      ]
    }
  ],
  "nodes": [
    {
      "children": [
        1
      ],
      "scale": [
        0.009999999776482582,
        0.009999999776482582,
        0.009999999776482582
      ],
      "name": "RootNode.0"
    },
    {
      "mesh": 0,
      "name": "caroler_in_green_jacket.1"
    }
  ],
  "samplers": [
    {
      "magFilter": 9729,
      "minFilter": 9985
    },
    {
      "magFilter": 9729,
      "minFilter": 9985
    },
    {
      "magFilter": 9729,
      "minFilter": 9985
    },
    {
      "magFilter": 9729,
      "minFilter": 9985
    },
    {
      "magFilter": 9729,
      "minFilter": 9985
    }
  ],
  "scenes": [
    {
      "nodes": [
        0
      ]
    }
  ],
  "textures": [
    {
      "sampler": 0,
      "source": 0
    },
    {
      "sampler": 1,
      "source": 1
    },
    {
      "sampler": 2,
      "source": 2
    },
    {
      "sampler": 3,
      "source": 3
    },
    {
      "sampler": 4,
      "source": 4
    }
  ],
  "scene": 0,
  "extensionsUsed": [
    "KHR_materials_pbrSpecularGlossiness"
  ],
  "extensionsRequired": [
    "KHR_materials_pbrSpecularGlossiness"
  ]
}