{
  "asset": {
    "generator": "Microsoft GLTF Exporter 2.8.3.2",
    "version": "2.0"
  },
  "accessors": [
    {
      "bufferView": 0,
      "componentType": 5123,
      "count": 69393,
      "type": "SCALAR"
    },
    {
      "bufferView": 1,
      "componentType": 5126,
      "count": 13242,
      "type": "VEC3",
      "max": [
        1.0234801769256592,
        5.055121898651123,
        1.3163286447525024
      ],
      "min": [
        -0.8188767433166504,
        -0.0021709799766540527,
        -1.5751316547393799
      ]
    },
    {
      "bufferView": 2,
      "componentType": 5126,
      "count": 13242,
      "type": "VEC3"
    },
    {
      "bufferView": 3,
      "componentType": 5126,
      "count": 13242,
      "type": "VEC4"
    },
    {
      "bufferView": 4,
      "componentType": 5126,
      "count": 13242,
      "type": "VEC2"
    }
  ],
  "bufferViews": [
    {
      "buffer": 0,
      "byteOffset": 0,
      "byteLength": 138788,
      "target": 34963
    },
    {
      "buffer": 0,
      "byteOffset": 138788,
      "byteLength": 158904,
      "target": 34962
    },
    {
      "buffer": 0,
      "byteOffset": 297692,
      "byteLength": 158904,
      "target": 34962
    },
    {
      "buffer": 0,
      "byteOffset": 456596,
      "byteLength": 211872,
      "target": 34962
    },
    {
      "buffer": 0,
      "byteOffset": 668468,
      "byteLength": 105936,
      "target": 34962
    }
  ],
  "buffers": [
    {
      "uri": "CarollerwithBraids_data.bin",
      "byteLength": 774404
    }
  ],
  "images": [
    {
      "uri": "CarollerwithBraids_img0.png"
    },
    {
      "uri": "CarollerwithBraids_img1.png"
    },
    {
      "uri": "CarollerwithBraids_img2.png"
    },
    {
      "uri": "CarollerwithBraids_img3.png"
    },
    {
      "uri": "CarollerwithBraids_img4.png"
    }
  ],
  "materials": [
    {
      "pbrMetallicRoughness": {},
      "normalTexture": {
        "index": 2
      },
      "occlusionTexture": {
        "index": 4
      },
      "emissiveTexture": {
        "index": 3
      },
      "emissiveFactor": [
        1,
        1,
        1
      ],
      "doubleSided": true,
      "extensions": {
        "KHR_materials_pbrSpecularGlossiness": {
          "diffuseTexture": {
            "index": 0
          },
          "specularGlossinessTexture": {
            "index": 1
          }
        }
      }
    }
  ],
  "meshes": [
    {
      "primitives": [
        {
          "attributes": {
            "TANGENT": 3,
            "NORMAL": 2,
            "POSITION": 1,
            "TEXCOORD_0": 4
          },
          "indices": 0,
          "material": 0
        }
      ]
    }
  ],
  "nodes": [
    {
      "children": [
        1
      ],
      "scale": [
        0.009999999776482582,
        0.009999999776482582,
        0.009999999776482582
      ],
      "name": "RootNode.0"
    },
    {
      "mesh": 0,
      "name": "caroler_with_braids.1"
    }
  ],
  "samplers": [
    {
      "magFilter": 9729,
      "minFilter": 9985
    },
    {
      "magFilter": 9729,
      "minFilter": 9985
    },
    {
      "magFilter": 9729,
      "minFilter": 9985
    },
    {
      "magFilter": 9729,
      "minFilter": 9985
    },
    {
      "magFilter": 9729,
      "minFilter": 9985
    }
  ],
  "scenes": [
    {
      "nodes": [
        0
      ]
    }
  ],
  "textures": [
    {
      "sampler": 0,
      "source": 0
    },
    {
      "sampler": 1,
      "source": 1
    },
    {
      "sampler": 2,
      "source": 2
    },
    {
      "sampler": 3,
      "source": 3
    },
    {
      "sampler": 4,
      "source": 4
    }
  ],
  "scene": 0,
  "extensionsUsed": [
    "KHR_materials_pbrSpecularGlossiness"
  ],
  "extensionsRequired": [
    "KHR_materials_pbrSpecularGlossiness"
  ]
}