{
  "asset": {
    "generator": "Microsoft GLTF Exporter 2.8.3.2",
    "version": "2.0"
  },
  "accessors": [
    {
      "bufferView": 0,
      "componentType": 5123,
      "count": 100545,
      "type": "SCALAR"
    },
    {
      "bufferView": 1,
      "componentType": 5126,
      "count": 18658,
      "type": "VEC3",
      "max": [
        0.9348474740982056,
        5.302721977233887,
        1.218649983406067
      ],
      "min": [
        -1.0822741985321045,
        -0.000045000000682193786,
        -1.0712169408798218
      ]
    },
    {
      "bufferView": 2,
      "componentType": 5126,
      "count": 18658,
      "type": "VEC3"
    },
    {
      "bufferView": 3,
      "componentType": 5126,
      "count": 18658,
      "type": "VEC4"
    },
    {
      "bufferView": 4,
      "componentType": 5126,
      "count": 18658,
      "type": "VEC2"
    }
  ],
  "bufferViews": [
    {
      "buffer": 0,
      "byteOffset": 0,
      "byteLength": 201092,
      "target": 34963
    },
    {
      "buffer": 0,
      "byteOffset": 201092,
      "byteLength": 223896,
      "target": 34962
    },
    {
      "buffer": 0,
      "byteOffset": 424988,
      "byteLength": 223896,
      "target": 34962
    },
    {
      "buffer": 0,
      "byteOffset": 648884,
      "byteLength": 298528,
      "target": 34962
    },
    {
      "buffer": 0,
      "byteOffset": 947412,
      "byteLength": 149264,
      "target": 34962
    }
  ],
  "buffers": [
    {
      "uri": "Caroler in Yellow Jacket_data.bin",
      "byteLength": 1096676
    }
  ],
  "images": [
    {
      "uri": "Caroler in Yellow Jacket_img0.png"
    },
    {
      "uri": "Caroler in Yellow Jacket_img1.png"
    },
    {
      "uri": "Caroler in Yellow Jacket_img2.png"
    },
    {
      "uri": "Caroler in Yellow Jacket_img3.png"
    },
    {
      "uri": "Caroler in Yellow Jacket_img4.png"
    }
  ],
  "materials": [
    {
      "pbrMetallicRoughness": {},
      "normalTexture": {
        "index": 2
      },
      "occlusionTexture": {
        "index": 4
      },
      "emissiveTexture": {
        "index": 3
      },
      "emissiveFactor": [
        1,
        1,
        1
      ],
      "doubleSided": true,
      "extensions": {
        "KHR_materials_pbrSpecularGlossiness": {
          "diffuseTexture": {
            "index": 0
          },
          "specularGlossinessTexture": {
            "index": 1
          }
        }
      }
    }
  ],
  "meshes": [
    {
      "primitives": [
        {
          "attributes": {
            "TANGENT": 3,
            "NORMAL": 2,
            "POSITION": 1,
            "TEXCOORD_0": 4
          },
          "indices": 0,
          "material": 0
        }
      ]
    }
  ],
  "nodes": [
    {
      "children": [
        1
      ],
      "scale": [
        0.009999999776482582,
        0.009999999776482582,
        0.009999999776482582
      ],
      "name": "RootNode.0"
    },
    {
      "mesh": 0,
      "name": "caroler_jacket.1"
    }
  ],
  "samplers": [
    {
      "magFilter": 9729,
      "minFilter": 9985
    },
    {
      "magFilter": 9729,
      "minFilter": 9985
    },
    {
      "magFilter": 9729,
      "minFilter": 9985
    },
    {
      "magFilter": 9729,
      "minFilter": 9985
    },
    {
      "magFilter": 9729,
      "minFilter": 9985
    }
  ],
  "scenes": [
    {
      "nodes": [
        0
      ]
    }
  ],
  "textures": [
    {
      "sampler": 0,
      "source": 0
    },
    {
      "sampler": 1,
      "source": 1
    },
    {
      "sampler": 2,
      "source": 2
    },
    {
      "sampler": 3,
      "source": 3
    },
    {
      "sampler": 4,
      "source": 4
    }
  ],
  "scene": 0,
  "extensionsUsed": [
    "KHR_materials_pbrSpecularGlossiness"
  ],
  "extensionsRequired": [
    "KHR_materials_pbrSpecularGlossiness"
  ]
}